<?xml version="1.0" encoding="utf-8" standalone="no"?>
<!DOCTYPE svg PUBLIC "-//W3C//DTD SVG 1.1//EN"
  "http://www.w3.org/Graphics/SVG/1.1/DTD/svg11.dtd">
<svg xmlns:xlink="http://www.w3.org/1999/xlink" width="444.42825pt" height="117.925937pt" viewBox="0 0 444.42825 117.925937" xmlns="http://www.w3.org/2000/svg" version="1.1">
 <metadata>
  <rdf:RDF xmlns:dc="http://purl.org/dc/elements/1.1/" xmlns:cc="http://creativecommons.org/ns#" xmlns:rdf="http://www.w3.org/1999/02/22-rdf-syntax-ns#">
   <cc:Work>
    <dc:type rdf:resource="http://purl.org/dc/dcmitype/StillImage"/>
    <dc:date>2023-12-18T14:49:38.752208</dc:date>
    <dc:format>image/svg+xml</dc:format>
    <dc:creator>
     <cc:Agent>
      <dc:title>Matplotlib v3.8.2, https://matplotlib.org/</dc:title>
     </cc:Agent>
    </dc:creator>
   </cc:Work>
  </rdf:RDF>
 </metadata>
 <defs>
  <style type="text/css">*{stroke-linejoin: round; stroke-linecap: butt}</style>
 </defs>
 <g id="figure_1">
  <g id="patch_1">
   <path d="M 0 117.925937 
L 444.42825 117.925937 
L 444.42825 0 
L 0 0 
z
" style="fill: #ffffff"/>
  </g>
  <g id="axes_1">
   <g id="patch_2">
    <path d="M 36 60.173228 
L 360.864 60.173228 
L 360.864 55.465054 
L 36 55.465054 
z
" style="fill: #ffffff"/>
   </g>
   <g id="matplotlib.axis_1"/>
   <g id="matplotlib.axis_2"/>
   <g id="QuadMesh_1">
    <path d="M 36 55.465054 
L 40.708174 55.465054 
L 40.708174 60.173228 
L 36 60.173228 
L 36 55.465054 
" clip-path="url(#p7a70f664c2)" style="fill: #808080; stroke: #000000; stroke-width: 0.5"/>
    <path d="M 40.708174 55.465054 
L 45.416348 55.465054 
L 45.416348 60.173228 
L 40.708174 60.173228 
L 40.708174 55.465054 
" clip-path="url(#p7a70f664c2)" style="fill: #666666; stroke: #000000; stroke-width: 0.5"/>
    <path d="M 45.416348 55.465054 
L 50.124522 55.465054 
L 50.124522 60.173228 
L 45.416348 60.173228 
L 45.416348 55.465054 
" clip-path="url(#p7a70f664c2)" style="fill: #4c4c4c; stroke: #000000; stroke-width: 0.5"/>
    <path d="M 50.124522 55.465054 
L 54.832696 55.465054 
L 54.832696 60.173228 
L 50.124522 60.173228 
L 50.124522 55.465054 
" clip-path="url(#p7a70f664c2)" style="fill: #666666; stroke: #000000; stroke-width: 0.5"/>
    <path d="M 54.832696 55.465054 
L 59.54087 55.465054 
L 59.54087 60.173228 
L 54.832696 60.173228 
L 54.832696 55.465054 
" clip-path="url(#p7a70f664c2)" style="fill: #666666; stroke: #000000; stroke-width: 0.5"/>
    <path d="M 59.54087 55.465054 
L 64.249043 55.465054 
L 64.249043 60.173228 
L 59.54087 60.173228 
L 59.54087 55.465054 
" clip-path="url(#p7a70f664c2)" style="fill: #666666; stroke: #000000; stroke-width: 0.5"/>
    <path d="M 64.249043 55.465054 
L 68.957217 55.465054 
L 68.957217 60.173228 
L 64.249043 60.173228 
L 64.249043 55.465054 
" clip-path="url(#p7a70f664c2)" style="fill: #4c4c4c; stroke: #000000; stroke-width: 0.5"/>
    <path d="M 68.957217 55.465054 
L 73.665391 55.465054 
L 73.665391 60.173228 
L 68.957217 60.173228 
L 68.957217 55.465054 
" clip-path="url(#p7a70f664c2)" style="fill: #cccccc; stroke: #000000; stroke-width: 0.5"/>
    <path d="M 73.665391 55.465054 
L 78.373565 55.465054 
L 78.373565 60.173228 
L 73.665391 60.173228 
L 73.665391 55.465054 
" clip-path="url(#p7a70f664c2)" style="fill: #cccccc; stroke: #000000; stroke-width: 0.5"/>
    <path d="M 78.373565 55.465054 
L 83.081739 55.465054 
L 83.081739 60.173228 
L 78.373565 60.173228 
L 78.373565 55.465054 
" clip-path="url(#p7a70f664c2)" style="fill: #4c4c4c; stroke: #000000; stroke-width: 0.5"/>
    <path d="M 83.081739 55.465054 
L 87.789913 55.465054 
L 87.789913 60.173228 
L 83.081739 60.173228 
L 83.081739 55.465054 
" clip-path="url(#p7a70f664c2)" style="fill: #4c4c4c; stroke: #000000; stroke-width: 0.5"/>
    <path d="M 87.789913 55.465054 
L 92.498087 55.465054 
L 92.498087 60.173228 
L 87.789913 60.173228 
L 87.789913 55.465054 
" clip-path="url(#p7a70f664c2)" style="fill: #333333; stroke: #000000; stroke-width: 0.5"/>
    <path d="M 92.498087 55.465054 
L 97.206261 55.465054 
L 97.206261 60.173228 
L 92.498087 60.173228 
L 92.498087 55.465054 
" clip-path="url(#p7a70f664c2)" style="stroke: #000000; stroke-width: 0.5"/>
    <path d="M 97.206261 55.465054 
L 101.914435 55.465054 
L 101.914435 60.173228 
L 97.206261 60.173228 
L 97.206261 55.465054 
" clip-path="url(#p7a70f664c2)" style="fill: #4c4c4c; stroke: #000000; stroke-width: 0.5"/>
    <path d="M 101.914435 55.465054 
L 106.622609 55.465054 
L 106.622609 60.173228 
L 101.914435 60.173228 
L 101.914435 55.465054 
" clip-path="url(#p7a70f664c2)" style="fill: #4c4c4c; stroke: #000000; stroke-width: 0.5"/>
    <path d="M 106.622609 55.465054 
L 111.330783 55.465054 
L 111.330783 60.173228 
L 106.622609 60.173228 
L 106.622609 55.465054 
" clip-path="url(#p7a70f664c2)" style="fill: #4c4c4c; stroke: #000000; stroke-width: 0.5"/>
    <path d="M 111.330783 55.465054 
L 116.038957 55.465054 
L 116.038957 60.173228 
L 111.330783 60.173228 
L 111.330783 55.465054 
" clip-path="url(#p7a70f664c2)" style="fill: #4c4c4c; stroke: #000000; stroke-width: 0.5"/>
    <path d="M 116.038957 55.465054 
L 120.74713 55.465054 
L 120.74713 60.173228 
L 116.038957 60.173228 
L 116.038957 55.465054 
" clip-path="url(#p7a70f664c2)" style="fill: #4c4c4c; stroke: #000000; stroke-width: 0.5"/>
    <path d="M 120.74713 55.465054 
L 125.455304 55.465054 
L 125.455304 60.173228 
L 120.74713 60.173228 
L 120.74713 55.465054 
" clip-path="url(#p7a70f664c2)" style="fill: #666666; stroke: #000000; stroke-width: 0.5"/>
    <path d="M 125.455304 55.465054 
L 130.163478 55.465054 
L 130.163478 60.173228 
L 125.455304 60.173228 
L 125.455304 55.465054 
" clip-path="url(#p7a70f664c2)" style="fill: #666666; stroke: #000000; stroke-width: 0.5"/>
    <path d="M 130.163478 55.465054 
L 134.871652 55.465054 
L 134.871652 60.173228 
L 130.163478 60.173228 
L 130.163478 55.465054 
" clip-path="url(#p7a70f664c2)" style="fill: #666666; stroke: #000000; stroke-width: 0.5"/>
    <path d="M 134.871652 55.465054 
L 139.579826 55.465054 
L 139.579826 60.173228 
L 134.871652 60.173228 
L 134.871652 55.465054 
" clip-path="url(#p7a70f664c2)" style="fill: #666666; stroke: #000000; stroke-width: 0.5"/>
    <path d="M 139.579826 55.465054 
L 144.288 55.465054 
L 144.288 60.173228 
L 139.579826 60.173228 
L 139.579826 55.465054 
" clip-path="url(#p7a70f664c2)" style="fill: #666666; stroke: #000000; stroke-width: 0.5"/>
    <path d="M 144.288 55.465054 
L 148.996174 55.465054 
L 148.996174 60.173228 
L 144.288 60.173228 
L 144.288 55.465054 
" clip-path="url(#p7a70f664c2)" style="fill: #666666; stroke: #000000; stroke-width: 0.5"/>
    <path d="M 148.996174 55.465054 
L 153.704348 55.465054 
L 153.704348 60.173228 
L 148.996174 60.173228 
L 148.996174 55.465054 
" clip-path="url(#p7a70f664c2)" style="fill: #666666; stroke: #000000; stroke-width: 0.5"/>
    <path d="M 153.704348 55.465054 
L 158.412522 55.465054 
L 158.412522 60.173228 
L 153.704348 60.173228 
L 153.704348 55.465054 
" clip-path="url(#p7a70f664c2)" style="fill: #666666; stroke: #000000; stroke-width: 0.5"/>
    <path d="M 158.412522 55.465054 
L 163.120696 55.465054 
L 163.120696 60.173228 
L 158.412522 60.173228 
L 158.412522 55.465054 
" clip-path="url(#p7a70f664c2)" style="fill: #4c4c4c; stroke: #000000; stroke-width: 0.5"/>
    <path d="M 163.120696 55.465054 
L 167.82887 55.465054 
L 167.82887 60.173228 
L 163.120696 60.173228 
L 163.120696 55.465054 
" clip-path="url(#p7a70f664c2)" style="fill: #808080; stroke: #000000; stroke-width: 0.5"/>
    <path d="M 167.82887 55.465054 
L 172.537043 55.465054 
L 172.537043 60.173228 
L 167.82887 60.173228 
L 167.82887 55.465054 
" clip-path="url(#p7a70f664c2)" style="fill: #666666; stroke: #000000; stroke-width: 0.5"/>
    <path d="M 172.537043 55.465054 
L 177.245217 55.465054 
L 177.245217 60.173228 
L 172.537043 60.173228 
L 172.537043 55.465054 
" clip-path="url(#p7a70f664c2)" style="fill: #999999; stroke: #000000; stroke-width: 0.5"/>
    <path d="M 177.245217 55.465054 
L 181.953391 55.465054 
L 181.953391 60.173228 
L 177.245217 60.173228 
L 177.245217 55.465054 
" clip-path="url(#p7a70f664c2)" style="fill: #808080; stroke: #000000; stroke-width: 0.5"/>
    <path d="M 181.953391 55.465054 
L 186.661565 55.465054 
L 186.661565 60.173228 
L 181.953391 60.173228 
L 181.953391 55.465054 
" clip-path="url(#p7a70f664c2)" style="fill: #808080; stroke: #000000; stroke-width: 0.5"/>
    <path d="M 186.661565 55.465054 
L 191.369739 55.465054 
L 191.369739 60.173228 
L 186.661565 60.173228 
L 186.661565 55.465054 
" clip-path="url(#p7a70f664c2)" style="fill: #808080; stroke: #000000; stroke-width: 0.5"/>
    <path d="M 191.369739 55.465054 
L 196.077913 55.465054 
L 196.077913 60.173228 
L 191.369739 60.173228 
L 191.369739 55.465054 
" clip-path="url(#p7a70f664c2)" style="fill: #b2b2b2; stroke: #000000; stroke-width: 0.5"/>
    <path d="M 196.077913 55.465054 
L 200.786087 55.465054 
L 200.786087 60.173228 
L 196.077913 60.173228 
L 196.077913 55.465054 
" clip-path="url(#p7a70f664c2)" style="fill: #808080; stroke: #000000; stroke-width: 0.5"/>
    <path d="M 200.786087 55.465054 
L 205.494261 55.465054 
L 205.494261 60.173228 
L 200.786087 60.173228 
L 200.786087 55.465054 
" clip-path="url(#p7a70f664c2)" style="fill: #808080; stroke: #000000; stroke-width: 0.5"/>
    <path d="M 205.494261 55.465054 
L 210.202435 55.465054 
L 210.202435 60.173228 
L 205.494261 60.173228 
L 205.494261 55.465054 
" clip-path="url(#p7a70f664c2)" style="fill: #b2b2b2; stroke: #000000; stroke-width: 0.5"/>
    <path d="M 210.202435 55.465054 
L 214.910609 55.465054 
L 214.910609 60.173228 
L 210.202435 60.173228 
L 210.202435 55.465054 
" clip-path="url(#p7a70f664c2)" style="fill: #808080; stroke: #000000; stroke-width: 0.5"/>
    <path d="M 214.910609 55.465054 
L 219.618783 55.465054 
L 219.618783 60.173228 
L 214.910609 60.173228 
L 214.910609 55.465054 
" clip-path="url(#p7a70f664c2)" style="fill: #666666; stroke: #000000; stroke-width: 0.5"/>
    <path d="M 219.618783 55.465054 
L 224.326957 55.465054 
L 224.326957 60.173228 
L 219.618783 60.173228 
L 219.618783 55.465054 
" clip-path="url(#p7a70f664c2)" style="fill: #e6e6e6; stroke: #000000; stroke-width: 0.5"/>
    <path d="M 224.326957 55.465054 
L 229.03513 55.465054 
L 229.03513 60.173228 
L 224.326957 60.173228 
L 224.326957 55.465054 
" clip-path="url(#p7a70f664c2)" style="fill: #b2b2b2; stroke: #000000; stroke-width: 0.5"/>
    <path d="M 229.03513 55.465054 
L 233.743304 55.465054 
L 233.743304 60.173228 
L 229.03513 60.173228 
L 229.03513 55.465054 
" clip-path="url(#p7a70f664c2)" style="fill: #808080; stroke: #000000; stroke-width: 0.5"/>
    <path d="M 233.743304 55.465054 
L 238.451478 55.465054 
L 238.451478 60.173228 
L 233.743304 60.173228 
L 233.743304 55.465054 
" clip-path="url(#p7a70f664c2)" style="fill: #999999; stroke: #000000; stroke-width: 0.5"/>
    <path d="M 238.451478 55.465054 
L 243.159652 55.465054 
L 243.159652 60.173228 
L 238.451478 60.173228 
L 238.451478 55.465054 
" clip-path="url(#p7a70f664c2)" style="fill: #999999; stroke: #000000; stroke-width: 0.5"/>
    <path d="M 243.159652 55.465054 
L 247.867826 55.465054 
L 247.867826 60.173228 
L 243.159652 60.173228 
L 243.159652 55.465054 
" clip-path="url(#p7a70f664c2)" style="fill: #999999; stroke: #000000; stroke-width: 0.5"/>
    <path d="M 247.867826 55.465054 
L 252.576 55.465054 
L 252.576 60.173228 
L 247.867826 60.173228 
L 247.867826 55.465054 
" clip-path="url(#p7a70f664c2)" style="fill: #cccccc; stroke: #000000; stroke-width: 0.5"/>
    <path d="M 252.576 55.465054 
L 257.284174 55.465054 
L 257.284174 60.173228 
L 252.576 60.173228 
L 252.576 55.465054 
" clip-path="url(#p7a70f664c2)" style="fill: #b2b2b2; stroke: #000000; stroke-width: 0.5"/>
    <path d="M 257.284174 55.465054 
L 261.992348 55.465054 
L 261.992348 60.173228 
L 257.284174 60.173228 
L 257.284174 55.465054 
" clip-path="url(#p7a70f664c2)" style="fill: #b2b2b2; stroke: #000000; stroke-width: 0.5"/>
    <path d="M 261.992348 55.465054 
L 266.700522 55.465054 
L 266.700522 60.173228 
L 261.992348 60.173228 
L 261.992348 55.465054 
" clip-path="url(#p7a70f664c2)" style="fill: #cccccc; stroke: #000000; stroke-width: 0.5"/>
    <path d="M 266.700522 55.465054 
L 271.408696 55.465054 
L 271.408696 60.173228 
L 266.700522 60.173228 
L 266.700522 55.465054 
" clip-path="url(#p7a70f664c2)" style="fill: #999999; stroke: #000000; stroke-width: 0.5"/>
    <path d="M 271.408696 55.465054 
L 276.11687 55.465054 
L 276.11687 60.173228 
L 271.408696 60.173228 
L 271.408696 55.465054 
" clip-path="url(#p7a70f664c2)" style="fill: #999999; stroke: #000000; stroke-width: 0.5"/>
    <path d="M 276.11687 55.465054 
L 280.825043 55.465054 
L 280.825043 60.173228 
L 276.11687 60.173228 
L 276.11687 55.465054 
" clip-path="url(#p7a70f664c2)" style="fill: #b2b2b2; stroke: #000000; stroke-width: 0.5"/>
    <path d="M 280.825043 55.465054 
L 285.533217 55.465054 
L 285.533217 60.173228 
L 280.825043 60.173228 
L 280.825043 55.465054 
" clip-path="url(#p7a70f664c2)" style="fill: #cccccc; stroke: #000000; stroke-width: 0.5"/>
    <path d="M 285.533217 55.465054 
L 290.241391 55.465054 
L 290.241391 60.173228 
L 285.533217 60.173228 
L 285.533217 55.465054 
" clip-path="url(#p7a70f664c2)" style="fill: #b2b2b2; stroke: #000000; stroke-width: 0.5"/>
    <path d="M 290.241391 55.465054 
L 294.949565 55.465054 
L 294.949565 60.173228 
L 290.241391 60.173228 
L 290.241391 55.465054 
" clip-path="url(#p7a70f664c2)" style="fill: #b2b2b2; stroke: #000000; stroke-width: 0.5"/>
    <path d="M 294.949565 55.465054 
L 299.657739 55.465054 
L 299.657739 60.173228 
L 294.949565 60.173228 
L 294.949565 55.465054 
" clip-path="url(#p7a70f664c2)" style="fill: #b2b2b2; stroke: #000000; stroke-width: 0.5"/>
    <path d="M 299.657739 55.465054 
L 304.365913 55.465054 
L 304.365913 60.173228 
L 299.657739 60.173228 
L 299.657739 55.465054 
" clip-path="url(#p7a70f664c2)" style="fill: #999999; stroke: #000000; stroke-width: 0.5"/>
    <path d="M 304.365913 55.465054 
L 309.074087 55.465054 
L 309.074087 60.173228 
L 304.365913 60.173228 
L 304.365913 55.465054 
" clip-path="url(#p7a70f664c2)" style="fill: #999999; stroke: #000000; stroke-width: 0.5"/>
    <path d="M 309.074087 55.465054 
L 313.782261 55.465054 
L 313.782261 60.173228 
L 309.074087 60.173228 
L 309.074087 55.465054 
" clip-path="url(#p7a70f664c2)" style="fill: #b2b2b2; stroke: #000000; stroke-width: 0.5"/>
    <path d="M 313.782261 55.465054 
L 318.490435 55.465054 
L 318.490435 60.173228 
L 313.782261 60.173228 
L 313.782261 55.465054 
" clip-path="url(#p7a70f664c2)" style="fill: #b2b2b2; stroke: #000000; stroke-width: 0.5"/>
    <path d="M 318.490435 55.465054 
L 323.198609 55.465054 
L 323.198609 60.173228 
L 318.490435 60.173228 
L 318.490435 55.465054 
" clip-path="url(#p7a70f664c2)" style="fill: #999999; stroke: #000000; stroke-width: 0.5"/>
    <path d="M 323.198609 55.465054 
L 327.906783 55.465054 
L 327.906783 60.173228 
L 323.198609 60.173228 
L 323.198609 55.465054 
" clip-path="url(#p7a70f664c2)" style="fill: #b2b2b2; stroke: #000000; stroke-width: 0.5"/>
    <path d="M 327.906783 55.465054 
L 332.614957 55.465054 
L 332.614957 60.173228 
L 327.906783 60.173228 
L 327.906783 55.465054 
" clip-path="url(#p7a70f664c2)" style="fill: #999999; stroke: #000000; stroke-width: 0.5"/>
    <path d="M 332.614957 55.465054 
L 337.32313 55.465054 
L 337.32313 60.173228 
L 332.614957 60.173228 
L 332.614957 55.465054 
" clip-path="url(#p7a70f664c2)" style="fill: #999999; stroke: #000000; stroke-width: 0.5"/>
    <path d="M 337.32313 55.465054 
L 342.031304 55.465054 
L 342.031304 60.173228 
L 337.32313 60.173228 
L 337.32313 55.465054 
" clip-path="url(#p7a70f664c2)" style="fill: #999999; stroke: #000000; stroke-width: 0.5"/>
    <path d="M 342.031304 55.465054 
L 346.739478 55.465054 
L 346.739478 60.173228 
L 342.031304 60.173228 
L 342.031304 55.465054 
" clip-path="url(#p7a70f664c2)" style="fill: #999999; stroke: #000000; stroke-width: 0.5"/>
    <path d="M 346.739478 55.465054 
L 351.447652 55.465054 
L 351.447652 60.173228 
L 346.739478 60.173228 
L 346.739478 55.465054 
" clip-path="url(#p7a70f664c2)" style="fill: #b2b2b2; stroke: #000000; stroke-width: 0.5"/>
    <path d="M 351.447652 55.465054 
L 356.155826 55.465054 
L 356.155826 60.173228 
L 351.447652 60.173228 
L 351.447652 55.465054 
" clip-path="url(#p7a70f664c2)" style="fill: #b2b2b2; stroke: #000000; stroke-width: 0.5"/>
    <path d="M 356.155826 55.465054 
L 360.864 55.465054 
L 360.864 60.173228 
L 356.155826 60.173228 
L 356.155826 55.465054 
" clip-path="url(#p7a70f664c2)" style="fill: #b2b2b2; stroke: #000000; stroke-width: 0.5"/>
   </g>
  </g>
  <g id="axes_2">
   <g id="patch_3">
    <path d="M 381.168 75.459141 
L 382.932 75.459141 
L 382.932 40.179141 
L 381.168 40.179141 
z
" style="fill: #ffffff"/>
   </g>
   <g id="matplotlib.axis_3"/>
   <g id="matplotlib.axis_4">
    <g id="ytick_1">
     <g id="line2d_1">
      <defs>
       <path id="mf3bbdc0c27" d="M 0 0 
L 1 0 
" style="stroke: #262626; stroke-width: 0.5"/>
      </defs>
      <g>
       <use xlink:href="#mf3bbdc0c27" x="382.932" y="40.179141" style="fill: #262626; stroke: #262626; stroke-width: 0.5"/>
      </g>
     </g>
     <g id="text_1">
      <text style="fill: #262626; font: 11px 'Arial', 'DejaVu Sans', 'Liberation Sans', 'Bitstream Vera Sans', sans-serif; text-anchor: start" x="387.432" y="44.358281" transform="rotate(-0 387.432 44.358281)">100</text>
     </g>
    </g>
    <g id="ytick_2">
     <g id="line2d_2">
      <g>
       <use xlink:href="#mf3bbdc0c27" x="382.932" y="75.459141" style="fill: #262626; stroke: #262626; stroke-width: 0.5"/>
      </g>
     </g>
     <g id="text_2">
      <text style="fill: #262626; font: 11px 'Arial', 'DejaVu Sans', 'Liberation Sans', 'Bitstream Vera Sans', sans-serif; text-anchor: start" x="387.432" y="79.638281" transform="rotate(-0 387.432 79.638281)">90</text>
     </g>
    </g>
   </g>
   <g id="QuadMesh_2">
    <path d="M 381.168 75.459141 
L 382.932 75.459141 
L 382.932 72.251868 
L 381.168 72.251868 
L 381.168 75.459141 
" clip-path="url(#p7e2133f308)" style="fill: #ffffff"/>
    <path d="M 381.168 72.251868 
L 382.932 72.251868 
L 382.932 69.044595 
L 381.168 69.044595 
L 381.168 72.251868 
" clip-path="url(#p7e2133f308)" style="fill: #e6e6e6"/>
    <path d="M 381.168 69.044595 
L 382.932 69.044595 
L 382.932 65.837322 
L 381.168 65.837322 
L 381.168 69.044595 
" clip-path="url(#p7e2133f308)" style="fill: #cccccc"/>
    <path d="M 381.168 65.837322 
L 382.932 65.837322 
L 382.932 62.63005 
L 381.168 62.63005 
L 381.168 65.837322 
" clip-path="url(#p7e2133f308)" style="fill: #b2b2b2"/>
    <path d="M 381.168 62.63005 
L 382.932 62.63005 
L 382.932 59.422777 
L 381.168 59.422777 
L 381.168 62.63005 
" clip-path="url(#p7e2133f308)" style="fill: #999999"/>
    <path d="M 381.168 59.422777 
L 382.932 59.422777 
L 382.932 56.215504 
L 381.168 56.215504 
L 381.168 59.422777 
" clip-path="url(#p7e2133f308)" style="fill: #808080"/>
    <path d="M 381.168 56.215504 
L 382.932 56.215504 
L 382.932 53.008232 
L 381.168 53.008232 
L 381.168 56.215504 
" clip-path="url(#p7e2133f308)" style="fill: #666666"/>
    <path d="M 381.168 53.008232 
L 382.932 53.008232 
L 382.932 49.800959 
L 381.168 49.800959 
L 381.168 53.008232 
" clip-path="url(#p7e2133f308)" style="fill: #4c4c4c"/>
    <path d="M 381.168 49.800959 
L 382.932 49.800959 
L 382.932 46.593686 
L 381.168 46.593686 
L 381.168 49.800959 
" clip-path="url(#p7e2133f308)" style="fill: #333333"/>
    <path d="M 381.168 46.593686 
L 382.932 46.593686 
L 382.932 43.386413 
L 381.168 43.386413 
L 381.168 46.593686 
" clip-path="url(#p7e2133f308)" style="fill: #191919"/>
    <path d="M 381.168 43.386413 
L 382.932 43.386413 
L 382.932 40.179141 
L 381.168 40.179141 
L 381.168 43.386413 
" clip-path="url(#p7e2133f308)"/>
   </g>
   <g id="LineCollection_1"/>
   <g id="patch_4">
    <path d="M 381.168 75.459141 
L 382.05 75.459141 
L 382.932 75.459141 
L 382.932 40.179141 
L 382.05 40.179141 
L 381.168 40.179141 
L 381.168 75.459141 
z
" style="fill: none; stroke: #000000; stroke-width: 0.5; stroke-linejoin: miter; stroke-linecap: square"/>
   </g>
  </g>
 </g>
 <defs>
  <clipPath id="p7a70f664c2">
   <rect x="36" y="55.465054" width="324.864" height="4.708174"/>
  </clipPath>
  <clipPath id="p7e2133f308">
   <rect x="381.168" y="40.179141" width="1.764" height="35.28"/>
  </clipPath>
 </defs>
</svg>
